<?xml version="1.0" encoding="utf-8" ?>
<svg xmlns="http://www.w3.org/2000/svg" xmlns:ev="http://www.w3.org/2001/xml-events" xmlns:xlink="http://www.w3.org/1999/xlink" baseProfile="full" height="200" version="1.1" width="400">
  <defs>
    <style type="text/css"><![CDATA[.background path {fill: #808080; fill-opacity: 0}.background path:nth-child(odd) {fill-opacity: .1}.axes {font-size: 14px}.x-axis .tick .lab {font-weight: bold; dominant-baseline: hanging}.axes, .tree {font-size: 14px; text-anchor: middle}.axes line, .edge {stroke: black; fill: none}.axes .ax-skip {stroke-dasharray: 4}.y-axis .grid {stroke: #FAFAFA}.node > .sym {fill: black; stroke: none}.site > .sym {stroke: black}.mut text {fill: red; font-style: italic}.mut.extra text {fill: hotpink}.mut line {fill: none; stroke: none}.mut .sym {fill: none; stroke: red}.mut.extra .sym {stroke: hotpink}.node .mut .sym {stroke-width: 1.5px}.tree text, .tree-sequence text {dominant-baseline: central}.plotbox .lab.lft {text-anchor: end}.plotbox .lab.rgt {text-anchor: start}]]></style>
  </defs>
  <g class="tree t0">
    <g class="plotbox">
      <g class="c2 i7 node n15 p0 root" transform="translate(191.562 26.8)">
        <g class="a15 c2 i9 node n12 p0" transform="translate(-92.8125 84.84)">
          <g class="a12 i1 leaf node n2 p0 sample" transform="translate(33.75 56.56)">
            <path class="edge" d="M 0 0 V -56.56 H -33.75"/>
            <rect class="sym" height="6" width="6" x="-3" y="-3"/>
            <text class="lab" transform="translate(0 11)">218</text>
          </g>
          <g class="a12 c2 i12 node n10 p0" transform="translate(-33.75 28.28)">
            <g class="a10 i0 leaf node n0 p0 sample" transform="translate(-22.5 28.28)">
              <path class="edge" d="M 0 0 V -28.28 H 22.5"/>
              <rect class="sym" height="6" width="6" x="-3" y="-3"/>
              <text class="lab" transform="translate(0 11)">216</text>
            </g>
            <g class="a10 i3 leaf node n7 p0 sample" transform="translate(22.5 28.28)">
              <path class="edge" d="M 0 0 V -28.28 H -22.5"/>
              <rect class="sym" height="6" width="6" x="-3" y="-3"/>
              <text class="lab" transform="translate(0 11)">223</text>
            </g>
            <path class="edge" d="M 0 0 V -28.28 H 33.75"/>
            <circle class="sym" cx="0" cy="0" r="3"/>
            <text class="lab lft" transform="translate(-3 -7.0)"/>
          </g>
          <path class="edge" d="M 0 0 V -84.84 H 92.8125"/>
          <circle class="sym" cx="0" cy="0" r="3"/>
          <text class="lab lft" transform="translate(-3 -7.0)"/>
        </g>
        <g class="a15 c2 i10 node n13 p0" transform="translate(92.8125 84.84)">
          <g class="a13 c2 i13 node n8 p0" transform="translate(50.625 42.42)">
            <g class="a8 i1 leaf node n3 p0 sample" transform="translate(-22.5 14.14)">
              <path class="edge" d="M 0 0 V -14.14 H 22.5"/>
              <rect class="sym" height="6" width="6" x="-3" y="-3"/>
              <text class="lab" transform="translate(0 11)">219</text>
            </g>
            <g class="a8 i2 leaf node n4 p0 sample" transform="translate(22.5 14.14)">
              <path class="edge" d="M 0 0 V -14.14 H -22.5"/>
              <rect class="sym" height="6" width="6" x="-3" y="-3"/>
              <text class="lab" transform="translate(0 11)">220</text>
            </g>
            <path class="edge" d="M 0 0 V -42.42 H -50.625"/>
            <circle class="sym" cx="0" cy="0" r="3"/>
            <text class="lab rgt" transform="translate(3 -7.0)"/>
          </g>
          <g class="a13 c2 i11 node n11 p0" transform="translate(-50.625 14.14)">
            <g class="a11 i3 leaf node n6 p0 sample" transform="translate(33.75 42.42)">
              <path class="edge" d="M 0 0 V -42.42 H -33.75"/>
              <rect class="sym" height="6" width="6" x="-3" y="-3"/>
              <text class="lab" transform="translate(0 11)">222</text>
            </g>
            <g class="a11 c2 i14 node n9 p0" transform="translate(-33.75 28.28)">
              <g class="a9 i0 leaf node n1 p0 sample" transform="translate(-22.5 14.14)">
                <path class="edge" d="M 0 0 V -14.14 H 22.5"/>
                <rect class="sym" height="6" width="6" x="-3" y="-3"/>
                <text class="lab" transform="translate(0 11)">217</text>
              </g>
              <g class="a9 i2 leaf node n5 p0 sample" transform="translate(22.5 14.14)">
                <path class="edge" d="M 0 0 V -14.14 H -22.5"/>
                <rect class="sym" height="6" width="6" x="-3" y="-3"/>
                <text class="lab" transform="translate(0 11)">221</text>
              </g>
              <path class="edge" d="M 0 0 V -28.28 H 33.75"/>
              <circle class="sym" cx="0" cy="0" r="3"/>
              <text class="lab lft" transform="translate(-3 -7.0)"/>
            </g>
            <path class="edge" d="M 0 0 V -14.14 H 50.625"/>
            <circle class="sym" cx="0" cy="0" r="3"/>
            <text class="lab lft" transform="translate(-3 -7.0)"/>
          </g>
          <path class="edge" d="M 0 0 V -84.84 H -92.8125"/>
          <circle class="sym" cx="0" cy="0" r="3"/>
          <text class="lab rgt" transform="translate(3 -7.0)"/>
        </g>
        <circle class="sym" cx="0" cy="0" r="3"/>
        <text class="lab" transform="translate(0 -11)"/>
      </g>
    </g>
  </g>
</svg>
